<?xml version="1.0" encoding="utf-8"?>
<!-- Generator: Adobe Illustrator 22.0.1, SVG Export Plug-In . SVG Version: 6.00 Build 0)  -->
<svg version="1.1" id="Layer_1" xmlns="http://www.w3.org/2000/svg" xmlns:xlink="http://www.w3.org/1999/xlink" x="0px" y="0px"
	 viewBox="0 0 86 106" style="enable-background:new 0 0 86 106;" xml:space="preserve">
<style type="text/css">
	.st0{fill:#A29BFE;}
	.st1{fill:none;stroke:#A29BFE;stroke-width:6;}
</style>
<g>
	<g>
		<path class="st0" d="M29.6,35.5h5.9c0.9,0,1.6,0.7,1.6,1.6v9.9c0,0.9,0.7,1.6,1.6,1.6h9.9c0.9,0,1.6-0.7,1.6-1.6V36.1
			c0-0.9,0.7-1.6,1.6-1.6h4.9c0.9,0,1.6,0.7,1.6,1.6v32.9c0,0.9-0.7,1.6-1.6,1.6h-4.9c-0.9,0-1.6-0.7-1.6-1.6V58.1
			c0-0.9-0.7-1.6-1.6-1.6h-9.9c-0.9,0-1.6,0.7-1.6,1.6v11.9c0,0.9-0.7,1.6-1.6,1.6h-5.9c-0.9,0-1.6-0.7-1.6-1.6V37.1
			C28,36.2,28.7,35.5,29.6,35.5z"/>
	</g>
</g>
<path class="st1" d="M7.7,28.4L40.5,7.6c1.6-1,3.5-1,5.1,0l32.7,20.7c1.4,0.9,2.2,2.4,2.2,4l0,42.3c0,1.6-0.8,3.1-2.2,4L45.5,99.4
	c-1.6,1-3.5,1-5.1,0L7.7,78.6c-1.4-0.9-2.2-2.4-2.2-4l0-42.3C5.5,30.7,6.3,29.2,7.7,28.4z"/>
</svg>
