<?xml version="1.0" encoding="utf-8"?>
<!-- Generator: Adobe Illustrator 22.0.1, SVG Export Plug-In . SVG Version: 6.00 Build 0)  -->
<svg version="1.1" id="Layer_1" xmlns="http://www.w3.org/2000/svg" xmlns:xlink="http://www.w3.org/1999/xlink" x="0px" y="0px"
	 viewBox="0 0 128 128" style="enable-background:new 0 0 128 128;" xml:space="preserve">
<style type="text/css">
	.st0{fill:#ccd6f6;}
</style>
<path class="st0" d="M111.2,81.9L107.1,37c-0.6-5.8-5.7-10.1-11.5-9.5c-5.4,0.5-9.5,5-9.6,10.3l-0.3,6.2
	c-7.4-12-22.3-36.4-22.5-36.6c-1.5-2.5-3.9-4.2-6.7-4.8c-2.7-0.6-5.6-0.2-8,1.4c-2,1.3-3.6,3.3-4.4,5.6l-2.7-4.3
	c-1.5-2.5-3.9-4.2-6.7-4.8c-2.7-0.6-5.6-0.2-8,1.4c-5,3.2-6.4,9.8-3.4,14.9l1.5,2.5c-2.4-0.3-4.8,0.2-6.9,1.5
	c-5,3.2-6.4,9.8-3.4,14.9l5.2,8.5c-2.4-0.3-4.8,0.2-6.9,1.5c-5,3.2-6.4,9.8-3.4,14.9l27.9,45.6c7.7,12.6,22.1,22.1,37.2,22.1
	c5.9,0,11.8-1.5,17-4.3c0,0,0.1,0,0.1-0.1l3.2-2.1c8-5.1,12.8-10.9,15.4-18.7c1.9-5.7,1.7-11,1.2-16.3
	C111.4,84,111.2,81.9,111.2,81.9z M106.7,101.5c-2.3,6.9-6.6,12-13.8,16.6l-3.2,2c-18.3,9.8-39.2-0.6-48.8-16.3L13,58.2
	c-2-3.2-1-7.4,2.1-9.4c3.1-1.9,7.2-0.9,9.1,2.2l17.7,29c0.6,0.9,1.8,1.2,2.7,0.7c0.9-0.6,1.2-1.8,0.7-2.8L18.1,33.3
	c-2-3.2-1-7.4,2.1-9.4c3.1-1.9,7.2-0.9,9.1,2.2l27.2,44.6c0.6,0.9,1.8,1.2,2.7,0.7c0.9-0.6,1.2-1.8,0.7-2.8L26.8,14.4
	c-2-3.2-1-7.4,2.1-9.4C32,3.1,36.1,4.1,38,7.2l33.1,54.2c0.6,0.9,1.8,1.2,2.8,0.7c0.9-0.6,1.2-1.8,0.7-2.8l-26-42.6
	c-2-3.2-1-7.4,2.1-9.4c1.5-0.9,3.2-1.2,4.9-0.8c1.8,0.4,3.3,1.5,4.2,3c0.2,0.4,21.9,35.6,25.9,42.1c0.6,0.9,1.8,1.2,2.7,0.7
	c0.6-0.3,0.9-0.9,1-1.6L89.9,38c0-3.6,3-6.6,6.6-6.6c3.4,0,6.2,2.6,6.5,6c0,0,4.4,46.9,4.6,49.4C108.1,91.9,108.4,96.5,106.7,101.5
	L106.7,101.5z M16.6,110.1c-4.5-1.5-8.4-6.4-10.4-10.4c-2.4-4.7-2.9-10.1-1.3-15.1c0.3-1.1-0.2-2.2-1.3-2.5c-1-0.3-2.2,0.2-2.5,1.3
	c-1.9,6-1.3,12.6,1.6,18.2c1.2,2.3,5.6,9.9,12.7,12.3c1,0.4,2.2-0.2,2.5-1.3C18.2,111.6,17.7,110.5,16.6,110.1
	C16.6,110.1,16.6,110.1,16.6,110.1z M21.6,100.1c-2.3-0.8-4.4-3.4-5.5-5.5c-1.3-2.5-1.5-5.3-0.7-8c0.3-1.1-0.2-2.2-1.3-2.5
	c-1.1-0.3-2.2,0.2-2.5,1.3c-1.1,3.7-0.8,7.6,0.9,11c0.7,1.4,3.4,6,7.8,7.5c1,0.3,2.2-0.2,2.5-1.3C23.2,101.6,22.7,100.5,21.6,100.1z
	 M123.9,20.7c-1.4-2.1-6.6-9.1-13.9-10.6c-1.1-0.2-2.1,0.5-2.4,1.6c-0.2,1.1,0.5,2.1,1.6,2.4c4.6,0.9,8.9,5.2,11.3,8.9
	c2.9,4.3,4,9.6,3.1,14.8c-0.2,1.1,0.5,2.1,1.6,2.3c0,0,0,0,0,0c0.1,0,0.2,0,0.4,0c1,0,1.8-0.7,2-1.6
	C128.7,32.2,127.4,25.9,123.9,20.7z M106.4,20.5c-1.1-0.2-2.1,0.5-2.4,1.6c-0.2,1.1,0.5,2.1,1.6,2.4c2.4,0.5,4.6,2.8,5.9,4.7
	c1.5,2.3,2.1,5.1,1.7,7.8c-0.2,1.1,0.5,2.1,1.6,2.3c1.1,0.2,2.1-0.5,2.3-1.6c0.7-3.7-0.1-7.6-2.3-10.8
	C114,25.7,110.9,21.4,106.4,20.5z"/>
</svg>
